<svg viewBox="0 0 201 36" fill="none" xmlns="http://www.w3.org/2000/svg">
  <path fill-rule="evenodd" clip-rule="evenodd" d="M56.3562 14.1393V28.2786H59.2079H62.0596V14.1393V0H59.2079H56.3562V14.1393ZM21.0919 0.812846C18.0976 1.49252 14.8093 3.37338 12.976 5.45514C12.0884 6.46265 11.3625 7.39946 11.3625 7.53658C11.3625 7.6737 11.6835 7.9384 12.0755 8.12419C13.0935 8.60723 16.0713 11.4512 17.0967 12.9204L17.9674 14.1676L18.9173 12.7346C19.4402 11.9464 20.4462 9.85839 21.1534 8.09492C22.5517 4.60843 23.2257 3.44638 24.943 1.5619L26.0666 0.328821L24.4972 0.362361C23.6341 0.381104 22.1018 0.583658 21.0919 0.812846ZM182.212 0.723407C181.673 1.28207 181.74 2.81767 182.329 3.42928C182.938 4.06061 184.047 4.09613 184.821 3.50918C185.483 3.00674 185.581 1.54776 185.001 0.823039C184.528 0.232147 182.747 0.168357 182.212 0.723407ZM0.158464 2.40631C-0.565871 8.66378 1.20124 14.3133 5.28996 18.8109C8.3264 22.1517 11.5301 24.2861 16.0641 25.9894C17.7573 26.6253 18.117 26.6707 18.3565 26.2781C18.5127 26.0219 18.6426 24.291 18.6455 22.4315C18.6528 17.2661 17.4021 14.0736 14.1692 11.005C12.6917 9.60257 11.4348 8.74467 6.45853 5.74319C4.71994 4.69458 2.63565 3.13137 1.8264 2.26952L0.35555 0.702363L0.158464 2.40631ZM37.0561 3.37042C36.7355 4.13887 34.2453 9.96657 31.5226 16.3204C28.7995 22.6742 26.5717 27.9643 26.5717 28.0757C26.5717 28.1872 27.893 28.2786 29.508 28.2786H32.4443L33.5267 25.4767L34.6091 22.6749L40.6037 22.764L46.5983 22.8531L47.6132 25.4836L48.6284 28.1142L51.7387 28.2089C54.174 28.2829 54.8144 28.2115 54.6899 27.8801C54.6024 27.647 52.0733 21.7229 49.0695 14.7148L43.6084 1.97293H40.624H37.6392L37.0561 3.37042ZM160.602 15.1258V28.2786H162.028H163.454V22.6887V17.0987H169.949H176.445V15.9478V14.797H169.949H163.454V9.53582V4.27468H170.742H178.029V3.1238V1.97293H169.316H160.602V15.1258ZM191.654 6.2476V8.54935H189.911C188.186 8.54935 188.169 8.55922 188.169 9.53582C188.169 10.5124 188.186 10.5223 189.911 10.5223H191.654L191.656 17.1809C191.657 20.8433 191.804 24.3851 191.982 25.0516C192.652 27.5532 195.539 28.9793 198.61 28.3247C200.812 27.8554 201.325 27.3698 200.823 26.2271C200.467 25.4156 200.414 25.4014 199.391 25.845C198.09 26.4093 197.017 26.43 195.923 25.9128C194.363 25.1755 194.189 24.2913 194.189 17.1151V10.5223H197.041H199.892V9.53582V8.54935H197.041H194.189V6.2476V3.94586H192.922H191.654V6.2476ZM103.914 7.91506C102.386 8.19587 98.4982 9.75251 98.4982 10.0833C98.4982 10.1543 98.925 11.0895 99.4466 12.1618L100.395 14.1114L102.061 13.3064C103.349 12.684 104.254 12.5008 106.055 12.4985C108.283 12.4952 108.431 12.5439 109.461 13.6132C110.134 14.3113 110.539 15.0521 110.539 15.5861V16.4411H107.386C102.128 16.4411 99.7194 17.3161 98.3683 19.7171C97.4694 21.3139 97.509 23.8224 98.458 25.4159C100.472 28.7978 106.863 29.7337 109.891 27.0899L110.856 26.2472V27.2629V28.2786H113.575H116.295L116.189 20.9624C116.09 14.063 116.041 13.5566 115.339 12.0753C114.066 9.39377 111.637 8.01272 107.721 7.74374C106.569 7.66482 104.857 7.7421 103.914 7.91506ZM145.464 7.9121C143.222 8.37047 141.008 9.8209 140.103 11.4242C139.429 12.6172 139.32 13.1499 139.441 14.6605C139.707 17.9898 141.395 19.2992 146.775 20.3521C150.353 21.0518 151.096 21.3957 151.096 22.349C151.096 24.3568 146.647 24.8405 142.866 23.2434C141.737 22.7666 140.732 22.4838 140.632 22.6147C140.531 22.7459 140.104 23.6452 139.683 24.6133C138.925 26.3544 138.924 26.3787 139.541 26.8473C140.922 27.8959 143.589 28.443 147.294 28.4381C150.41 28.4338 151.167 28.3243 152.519 27.6821C155.34 26.3412 156.483 24.6817 156.483 21.9258C156.483 18.8793 154.345 17.1365 149.52 16.2487C145.268 15.4668 144.093 14.696 145.002 13.2844C145.823 12.0082 149.416 11.7787 152.27 12.8198C153.256 13.1792 154.086 13.4383 154.116 13.3952C154.211 13.2604 155.849 9.46019 155.849 9.37634C155.849 9.12249 152.854 8.1962 151.096 7.90684C148.736 7.51817 147.383 7.51948 145.464 7.9121ZM44.6309 18.003C44.6319 18.0483 42.8502 18.0852 40.6718 18.0852C38.4934 18.0852 36.7111 17.9566 36.7111 17.7994C36.7111 17.6422 37.4389 15.6815 38.3286 13.4425C39.2181 11.2033 40.084 9.00148 40.2529 8.54935C40.5276 7.81312 40.7719 8.25868 42.5945 12.824C43.7136 15.6272 44.63 17.9576 44.6309 18.003ZM63.9548 8.12517C63.9513 8.26788 65.4839 12.8641 67.361 18.3384L70.7732 28.2921L73.5726 28.203L76.3721 28.1142L77.7758 24.1684C78.5476 21.9981 79.5546 19.2005 80.0134 17.9517L80.8474 15.6812L82.5375 20.5822C83.4671 23.2779 84.4564 26.1124 84.7352 26.8811L85.2425 28.2786H87.989L90.7352 28.2783L94.2552 18.1674L97.7751 8.05612L95.3917 7.95912C94.0055 7.90256 92.9244 8.00285 92.8081 8.19817C92.6978 8.3833 91.6183 11.4233 90.4088 14.9538C89.1994 18.4847 88.1364 21.3731 88.0467 21.3731C87.957 21.3727 86.868 18.3762 85.6265 14.7144L83.3699 8.05612L80.9915 7.96076L78.6132 7.8654L77.194 11.9066C76.4133 14.1294 75.3623 17.1681 74.8581 18.6596C74.3543 20.1512 73.8546 21.3721 73.7479 21.3724C73.6411 21.3731 72.5603 18.3772 71.3461 14.7148L69.1382 8.05612L66.5495 7.96076C65.1256 7.90815 63.9579 7.98214 63.9548 8.12517ZM117.297 8.13833C117.375 8.2738 119.311 12.9401 121.599 18.5074C126.076 29.4019 126.017 29.1378 124.281 30.5547C123.304 31.3524 121.53 31.4383 120.361 30.7448C119.926 30.4863 119.464 30.2696 119.336 30.2631C119.208 30.2568 118.678 31.1252 118.159 32.1932C117.44 33.6706 117.306 34.2109 117.599 34.4516C119.145 35.7199 122.1 36.3203 124.38 35.829C126.283 35.419 127.696 34.5095 128.958 32.8821C129.712 31.9082 139.373 8.98767 139.373 8.17055C139.373 8.01699 138.197 7.89204 136.759 7.8927L134.145 7.89368L131.471 14.6335C130.001 18.3403 128.702 21.3734 128.583 21.3734C128.466 21.3734 127.173 18.3403 125.712 14.6332L123.055 7.89335L120.105 7.89237C118.483 7.89204 117.219 8.00285 117.297 8.13833ZM182.148 18.2496V28.2786H183.574H185V18.2496V8.22053H183.574H182.148V18.2496ZM110.539 20.9712C110.539 22.5085 109.83 23.6038 108.448 24.2032C105.336 25.5524 102.482 23.8349 103.457 21.1994C103.795 20.2853 105.476 19.7559 108.083 19.7421L110.539 19.7293V20.9712ZM6.89896 23.2552C6.71487 23.7577 6.347 25.2781 6.08179 26.6345C5.81658 27.9909 5.26683 29.7294 4.85967 30.4982C4.00954 32.1031 4.21582 32.2192 6.36569 31.3462C8.52381 30.4696 10.3986 28.981 11.392 27.3553C11.8987 26.5263 12.3131 25.747 12.3131 25.6237C12.3131 25.5001 11.8622 25.2051 11.3115 24.9684C10.7605 24.7316 9.6176 24.0437 8.7719 23.44L7.2342 22.3424L6.89896 23.2552Z" fill="black"/>
</svg>
